<?xml version="1.0" encoding="utf-8"?>
<!-- Generator: Adobe Illustrator 27.2.0, SVG Export Plug-In . SVG Version: 6.00 Build 0)  -->
<svg version="1.1" id="Layer_3" xmlns="http://www.w3.org/2000/svg" xmlns:xlink="http://www.w3.org/1999/xlink" x="0px" y="0px"
	 viewBox="0 0 144 144" style="enable-background:new 0 0 144 144;" xml:space="preserve">
<g>
	<path d="M19.22,131.78c0.5-1.37,1.14-3.88,2.31-6.12c1.05-2.01,2.54-3.83,4.07-5.54c4.55-5.09,9.2-10.1,13.83-15.11
		c5.4-5.85,10.82-11.69,16.25-17.52c5.33-5.73,10.68-11.44,16.04-17.15c5.45-5.81,10.92-11.61,16.39-17.41
		c5.42-5.75,10.84-11.49,16.27-17.23c5.56-5.88,11.14-11.75,16.71-17.64c3.15-3.33,6.26-6.71,9.44-10.02
		c1.49-1.55,2.53-1.35,2.84,0.74c0.27,1.82,0.23,3.84-0.29,5.59c-1.04,3.49-2.15,7.04-3.85,10.24c-3.68,6.93-7.47,13.83-11.73,20.4
		c-5.22,8.04-10.94,15.75-16.5,23.56c-1.76,2.47-3.69,4.82-5.59,7.17c-1.82,2.25-4.12,3.79-7.08,3.9c-4.64,0.17-7.9,2.48-10.56,6.14
		c-2.66,3.66-5.55,7.14-8.4,10.66c-6.49,8.04-12.98,16.09-19.54,24.08c-4.5,5.48-9.05,10.91-13.7,16.25c-1.77,2.03-4,3.48-6.75,4.17
		C23.37,142.44,19.52,138.24,19.22,131.78z"/>
	<path d="M69.71,64.59c-2.57,2.77-4.96,5.35-7.27,7.85c-2.24-1.02-4.32-2.09-6.5-2.9c-1.07-0.4-2.5-0.71-3.48-0.33
		c-6.64,2.62-11.66-0.06-16.06-4.73c-2.4-2.55-4.62-5.27-6.85-7.97c-5.71-6.95-11.4-13.91-17.03-20.92
		c-2.19-2.73-4.23-5.59-6.31-8.41c-1.18-1.61-0.85-3.99,0.67-5.09c1.48-1.08,3.12-0.59,4.5,1.1c1.92,2.35,3.97,4.61,5.98,6.88
		c4.44,5.01,8.9,10,13.34,15.01c1.84,2.07,3.72,4.11,5.47,6.25c1.04,1.28,2.25,1.51,3.53,0.77c1.56-0.89,2.33-3.01,1.69-4.37
		c-0.43-0.9-0.97-1.79-1.65-2.52c-4.7-5.04-9.47-10.02-14.18-15.04c-3.56-3.79-7.08-7.6-10.61-11.42c-1.36-1.48-1.37-3.91-0.07-5.16
		c1.36-1.3,3.35-1.27,4.88,0.35c4.85,5.16,9.6,10.41,14.42,15.6c2.76,2.97,5.59,5.88,8.38,8.83c0.73,0.78,1.42,1.61,2.08,2.45
		c1.39,1.78,3.4,2.15,4.97,0.88c1.47-1.18,1.68-3.57,0.37-5.13c-0.95-1.13-1.97-2.21-3.01-3.25c-5.11-5.12-10.26-10.2-15.36-15.33
		c-2.76-2.77-5.44-5.62-8.14-8.44c-1.35-1.41-1.5-3.68-0.35-5.01c1.28-1.47,3.15-1.6,4.85-0.06c4.85,4.38,9.62,8.84,14.43,13.27
		c3.43,3.16,6.97,6.2,10.29,9.47c3.99,3.93,7.97,7.91,11.62,12.15c2.62,3.03,3.39,6.87,2.86,10.89c-0.21,1.61-0.74,3.27-0.54,4.83
		c0.3,2.37,1.05,4.69,1.74,7C68.62,62.99,69.24,63.76,69.71,64.59z"/>
	<path d="M133.74,132.49c-0.1,6.82-4.73,10.69-11.14,8.5c-4.31-1.47-7.03-4.93-10.05-7.97c-2.13-2.15-3.89-4.65-5.84-6.97
		c-5.85-7-11.73-13.98-17.56-21.01c-3.06-3.69-6.02-7.47-9.09-11.15c-0.68-0.81-0.86-1.42-0.16-2.28c1.46-1.78,2.78-3.67,4.34-5.34
		c0.51-0.54,1.6-0.57,2.44-0.77c2.44-0.58,4.36-0.53,6.35,1.8c2.96,3.47,6.73,6.24,10.06,9.41c6.36,6.04,12.69,12.11,18.94,18.26
		c2.59,2.55,4.94,5.33,7.38,8.03C132.05,125.92,133.44,129.37,133.74,132.49z"/>
</g>
</svg>
